<mxfile host="65bd71144e">
    <diagram id="5duKwP9cRmDWEejWkPEH" name="Page-1">
        <mxGraphModel dx="993" dy="710" grid="1" gridSize="10" guides="1" tooltips="1" connect="1" arrows="1" fold="1" page="1" pageScale="1" pageWidth="827" pageHeight="1169" math="0" shadow="0">
            <root>
                <mxCell id="0"/>
                <mxCell id="1" parent="0"/>
                <mxCell id="2" value="Components" style="shape=image;verticalLabelPosition=bottom;labelBackgroundColor=default;verticalAlign=top;aspect=fixed;imageAspect=0;image=data:image/svg+xml,PHN2ZyB4bWxuczp4bGluaz0iaHR0cDovL3d3dy53My5vcmcvMTk5OS94bGluayIgeG1sbnM9Imh0dHA6Ly93d3cudzMub3JnLzIwMDAvc3ZnIiB2ZXJzaW9uPSIxLjEiIHZpZXdCb3g9IjAgMCAzNjcgMjcwIiBoZWlnaHQ9IjI3MHB4IiB3aWR0aD0iMzY3cHgiPgogICAgCiAgICA8dGl0bGU+QXJ0Ym9hcmQ8L3RpdGxlPgogICAgPGRlc2M+Q3JlYXRlZCB3aXRoIFNrZXRjaC48L2Rlc2M+CiAgICA8ZGVmcy8+CiAgICA8ZyBmaWxsLXJ1bGU9ImV2ZW5vZGQiIGZpbGw9Im5vbmUiIHN0cm9rZS13aWR0aD0iMSIgc3Ryb2tlPSJub25lIiBpZD0iQXJ0Ym9hcmQiPgogICAgICAgIDxwYXRoIGZpbGw9IiMwRDIxOTIiIGlkPSJkYXByIiBkPSJNODkuNzkxNzExOSwxOTMuNTA4NzYxIEw2Mi45MDAwMzkyLDE5My41MDg3NjEgTDYyLjkwMDAzOTIsMTg1LjA2NDEyIEM2MC4zMzExMDY0LDE4OC4yODg5NSA1Ny43MzQ4ODM1LDE5MC42MzkyMTUgNTUuMTExMjkyNiwxOTIuMTE0OTg1IEM1MC41MjAwMDg0LDE5NC42ODM5MTggNDUuMzAwMjMzOSwxOTUuOTY4MzY1IDM5LjQ1MTgxMjQsMTk1Ljk2ODM2NSBDMjkuOTk1OTUzNCwxOTUuOTY4MzY1IDIxLjU3ODcyNTQsMTkyLjcxNjI1NCAxNC4xOTk4NzU5LDE4Ni4yMTE5MzUgQzUuMzk5OTE0NjQsMTc4LjQ1MDQ3OCAxLDE2OC4xNzQ5MDEgMSwxNTUuMzg0ODk1IEMxLDE0Mi4zNzYyNTcgNS41MDkyMjkyOSwxMzEuOTkxMzY1IDE0LjUyNzgyMzEsMTI0LjIyOTkwOSBDMjEuNjg4MDQwMSwxMTguMDUzNTM4IDI5LjkxMzk2NzQsMTE0Ljk2NTQgMzkuMjA1ODUyLDExNC45NjU0IEM0NC42MTcwMDgzLDExNC45NjU0IDQ5LjcwMDEzOTUsMTE2LjExMzIwMyA1NC40NTUzOTgxLDExOC40MDg4NDUgQzU3LjE4ODMwNTMsMTE5LjcyMDY0MSA2MC4wMDMxNTc2LDEyMS44Nzk2MDUgNjIuOTAwMDM5MiwxMjQuODg1ODAzIEw2Mi45MDAwMzkyLDcwLjM2NDU3NjYgTDg5Ljc5MTcxMTksNzAuMzY0NTc2NiBMODkuNzkxNzExOSwxOTMuNTA4NzYxIFogTTYzLjcxOTkwNzMsMTU1LjQ2Njg4MiBDNjMuNzE5OTA3MywxNTAuNjU2OTY1IDYyLjAyNTUzMDIsMTQ2LjU3MTMzIDU4LjYzNjcyNTMsMTQzLjIwOTg1NSBDNTUuMjQ3OTIwMywxMzkuODQ4Mzc5IDUxLjE0ODYyMSwxMzguMTY3NjY2IDQ2LjMzODcwNDIsMTM4LjE2NzY2NiBDNDAuOTgyMjA2MSwxMzguMTY3NjY2IDM2LjU4MjI5MTQsMTQwLjE4OTk4NyAzMy4xMzg4MjgzLDE0NC4yMzQ2OSBDMzAuMzUxMjYyOSwxNDcuNTE0MTc4IDI4Ljk1NzUwMTIsMTUxLjI1ODIwNSAyOC45NTc1MDEyLDE1NS40NjY4ODIgQzI4Ljk1NzUwMTIsMTU5LjY3NTU1OSAzMC4zNTEyNjI5LDE2My40MTk1ODYgMzMuMTM4ODI4MywxNjYuNjk5MDc1IEMzNi41Mjc2MzMzLDE3MC43NDM3NzcgNDAuOTI3NTQ3OSwxNzIuNzY2MDk4IDQ2LjMzODcwNDIsMTcyLjc2NjA5OCBDNTEuMjAzMjc5MSwxNzIuNzY2MDk4IDU1LjMxNjI0MjgsMTcxLjA5OTA1IDU4LjY3NzcxODcsMTY3Ljc2NDkwMyBDNjIuMDM5MTk0NiwxNjQuNDMwNzU2IDYzLjcxOTkwNzMsMTYwLjMzMTQ1NyA2My43MTk5MDczLDE1NS40NjY4ODIgWiBNMTkwLjY1MDA2LDE5My41MDg3NjEgTDE2My43NTgzODcsMTkzLjUwODc2MSBMMTYzLjc1ODM4NywxODUuMDY0MTIgQzE2MS4xODk0NTQsMTg4LjI4ODk1IDE1OC41OTMyMzEsMTkwLjYzOTIxNSAxNTUuOTY5NjQxLDE5Mi4xMTQ5ODUgQzE1MS4zNzgzNTYsMTk0LjY4MzkxOCAxNDYuMTU4NTgyLDE5NS45NjgzNjUgMTQwLjMxMDE2LDE5NS45NjgzNjUgQzEzMC44NTQzMDEsMTk1Ljk2ODM2NSAxMjIuNDM3MDczLDE5Mi43MTYyNTQgMTE1LjA1ODIyNCwxODYuMjExOTM1IEMxMDYuMjU4MjYzLDE3OC40NTA0NzggMTAxLjg1ODM0OCwxNjguMTc0OTAxIDEwMS44NTgzNDgsMTU1LjM4NDg5NSBDMTAxLjg1ODM0OCwxNDIuMzc2MjU3IDEwNi4zNjc1NzcsMTMxLjk5MTM2NSAxMTUuMzg2MTcxLDEyNC4yMjk5MDkgQzEyMi41NDYzODgsMTE4LjA1MzUzOCAxMzAuNzcyMzE1LDExNC45NjU0IDE0MC4wNjQyLDExNC45NjU0IEMxNDUuNDc1MzU2LDExNC45NjU0IDE1MC41NTg0ODcsMTE2LjExMzIwMyAxNTUuMzEzNzQ2LDExOC40MDg4NDUgQzE1OC4wNDY2NTMsMTE5LjcyMDY0MSAxNjAuODYxNTA2LDEyMS44Nzk2MDUgMTYzLjc1ODM4NywxMjQuODg1ODAzIEwxNjMuNzU4Mzg3LDExNy40MjUwMDQgTDE5MC42NTAwNiwxMTcuNDI1MDA0IEwxOTAuNjUwMDYsMTkzLjUwODc2MSBaIE0xNjQuNTc4MjU1LDE1NS40NjY4ODIgQzE2NC41NzgyNTUsMTUwLjY1Njk2NSAxNjIuODgzODc4LDE0Ni41NzEzMyAxNTkuNDk1MDczLDE0My4yMDk4NTUgQzE1Ni4xMDYyNjgsMTM5Ljg0ODM3OSAxNTIuMDA2OTY5LDEzOC4xNjc2NjYgMTQ3LjE5NzA1MiwxMzguMTY3NjY2IEMxNDEuODQwNTU0LDEzOC4xNjc2NjYgMTM3LjQ0MDYzOSwxNDAuMTg5OTg3IDEzMy45OTcxNzYsMTQ0LjIzNDY5IEMxMzEuMjA5NjExLDE0Ny41MTQxNzggMTI5LjgxNTg0OSwxNTEuMjU4MjA1IDEyOS44MTU4NDksMTU1LjQ2Njg4MiBDMTI5LjgxNTg0OSwxNTkuNjc1NTU5IDEzMS4yMDk2MTEsMTYzLjQxOTU4NiAxMzMuOTk3MTc2LDE2Ni42OTkwNzUgQzEzNy4zODU5ODEsMTcwLjc0Mzc3NyAxNDEuNzg1ODk2LDE3Mi43NjYwOTggMTQ3LjE5NzA1MiwxNzIuNzY2MDk4IEMxNTIuMDYxNjI3LDE3Mi43NjYwOTggMTU2LjE3NDU5MSwxNzEuMDk5MDUgMTU5LjUzNjA2NywxNjcuNzY0OTAzIEMxNjIuODk3NTQzLDE2NC40MzA3NTYgMTY0LjU3ODI1NSwxNjAuMzMxNDU3IDE2NC41NzgyNTUsMTU1LjQ2Njg4MiBaIE0yOTQuNTQxOTIsMTU1LjU0ODg2OSBDMjk0LjU0MTkyLDE2OC41NTc1MDcgMjkwLjAzMjY5LDE3OC45NDIzOTkgMjgxLjAxNDA5NywxODYuNzAzODU2IEMyNzMuODUzODgsMTkyLjg4MDIyNiAyNjUuNjI3OTUyLDE5NS45NjgzNjUgMjU2LjMzNjA2OCwxOTUuOTY4MzY1IEMyNTAuOTI0OTExLDE5NS45NjgzNjUgMjQ1Ljg0MTc4LDE5NC44MjA1NjEgMjQxLjA4NjUyMiwxOTIuNTI0OTE5IEMyMzguMzUzNjE0LDE5MS4yMTMxMjMgMjM1LjUzODc2MiwxODkuMDU0MTU5IDIzMi42NDE4OCwxODYuMDQ3OTYxIEwyMzIuNjQxODgsMjMxLjU1MDYzOSBMMjA1Ljc1MDIwOCwyMzEuNTUwNjM5IEwyMDUuNzUwMjA4LDExNy40MjUwMDQgTDIzMi42NDE4OCwxMTcuNDI1MDA0IEwyMzIuNjQxODgsMTI1Ljg2OTY0NSBDMjM1LjA0NjgzOSwxMjIuNjk5NDczIDIzNy42NDMwNjIsMTIwLjM0OTIwOCAyNDAuNDMwNjI3LDExOC44MTg3OCBDMjQ1LjAyMTkxMSwxMTYuMjQ5ODQ3IDI1MC4yNDE2ODYsMTE0Ljk2NTQgMjU2LjA5MDEwNywxMTQuOTY1NCBDMjY1LjU0NTk2NiwxMTQuOTY1NCAyNzMuOTYzMTk0LDExOC4yMTc1MSAyODEuMzQyMDQ0LDEyNC43MjE4MyBDMjkwLjE0MjAwNSwxMzIuNDgzMjg2IDI5NC41NDE5MiwxNDIuNzU4ODYzIDI5NC41NDE5MiwxNTUuNTQ4ODY5IFogTTI2Ni41ODQ0MTgsMTU1LjQ2Njg4MiBDMjY2LjU4NDQxOCwxNTEuMTQ4ODg5IDI2NS4yMTc5ODUsMTQ3LjQwNDg2MiAyNjIuNDg1MDc4LDE0NC4yMzQ2OSBDMjU5LjA0MTYxNSwxNDAuMTg5OTg3IDI1NC42MTQzNzIsMTM4LjE2NzY2NiAyNDkuMjAzMjE1LDEzOC4xNjc2NjYgQzI0NC4zMzg2NDEsMTM4LjE2NzY2NiAyNDAuMjI1Njc3LDEzOS44MzQ3MTQgMjM2Ljg2NDIwMSwxNDMuMTY4ODYxIEMyMzMuNTAyNzI1LDE0Ni41MDMwMDggMjMxLjgyMjAxMiwxNTAuNjAyMzA3IDIzMS44MjIwMTIsMTU1LjQ2Njg4MiBDMjMxLjgyMjAxMiwxNjAuMjc2Nzk5IDIzMy41MTYzODksMTY0LjM2MjQzNCAyMzYuOTA1MTk0LDE2Ny43MjM5MSBDMjQwLjI5Mzk5OSwxNzEuMDg1Mzg2IDI0NC4zOTMyOTksMTcyLjc2NjA5OCAyNDkuMjAzMjE1LDE3Mi43NjYwOTggQzI1NC42MTQzNzIsMTcyLjc2NjA5OCAyNTkuMDE0Mjg2LDE3MC43NDM3NzcgMjYyLjQwMzA5MSwxNjYuNjk5MDc1IEMyNjUuMTkwNjU3LDE2My40MTk1ODYgMjY2LjU4NDQxOCwxNTkuNjc1NTU5IDI2Ni41ODQ0MTgsMTU1LjQ2Njg4MiBaIE0zNjMuNjcxMzczLDE0Mi4yNjcwMDYgQzM1OS44OTk5NjEsMTQwLjQ2MzI4OCAzNTYuMDczOTQ5LDEzOS41NjE0NDIgMzUyLjE5MzIyLDEzOS41NjE0NDIgQzM0My4zMzg2MDEsMTM5LjU2MTQ0MiAzMzcuNTk5NTgyLDE0My4xNjg4MjUgMzM0Ljk3NTk5MSwxNTAuMzgzNyBDMzMzLjk5MjE0NCwxNTMuMDA3MjkxIDMzMy41MDAyMjgsMTU2LjUzMjY4OSAzMzMuNTAwMjI4LDE2MC45NTk5OTggTDMzMy41MDAyMjgsMTkzLjUwODc2MSBMMzA2LjYwODU1NiwxOTMuNTA4NzYxIEwzMDYuNjA4NTU2LDExNy40MjUwMDQgTDMzMy41MDAyMjgsMTE3LjQyNTAwNCBMMzMzLjUwMDIyOCwxMjkuODg2OTk4IEMzMzYuMzQyNDUyLDEyNS40NTk2ODkgMzM5LjQwMzI2MiwxMjIuMjYyMjM1IDM0Mi42ODI3NTEsMTIwLjI5NDU0MiBDMzQ3LjExMDA2LDExNy42NzA5NTEgMzUyLjM1NzE2NCwxMTYuMzU5MTc1IDM1OC40MjQyMTgsMTE2LjM1OTE3NSBDMzU5Ljg0NTMyOSwxMTYuMzU5MTc1IDM2MS41OTQzNjQsMTE2LjQ0MTE2MSAzNjMuNjcxMzczLDExNi42MDUxMzYgTDM2My42NzEzNzMsMTQyLjI2NzAwNiBaIi8+CiAgICAgICAgPHBvbHlnb24gcG9pbnRzPSIyMDUuNTM4NDA5IDE5NC4wNjIxNzIgMjMyLjYxNDU1MSAxOTQuMDYyMTcyIDIzNC45NDY2MjEgMjU3LjYzMzgzMSAyMTkuMDc2NDggMjY4Ljc1NDQzIDIwMy4yMDYzMzkgMjU3LjYzMzgzMSIgZmlsbC1ydWxlPSJub256ZXJvIiBmaWxsPSIjMEQyMTkyIiBpZD0idGllIi8+CiAgICAgICAgPHJlY3Qgcng9IjIiIGhlaWdodD0iNzIuMjk0MTQ0NCIgd2lkdGg9IjEwMi43MjI2NDMiIHk9IjIuMjc5MDg4MjkiIHg9IjE0NC44Mjk0OTciIGZpbGwtcnVsZT0ibm9uemVybyIgZmlsbD0iIzBEMjE5MiIgaWQ9IlJlY3RhbmdsZS00Ii8+CiAgICAgICAgPHJlY3QgaGVpZ2h0PSI3Mi4yOTQxNDQ0IiB3aWR0aD0iMzcuOTk3NjM2OSIgeT0iMi4yNzkwODgyOSIgeD0iMTQ0LjgyOTQ5NyIgb3BhY2l0eT0iMC4wNzk5OTk5OTgyIiBmaWxsLXJ1bGU9Im5vbnplcm8iIGZpbGw9IiNGRkZGRkYiIGlkPSJSZWN0YW5nbGUtNCIvPgogICAgICAgIDxyZWN0IHJ4PSIzLjcyMDE2IiBoZWlnaHQ9IjE3LjM1MTM0MTIiIHdpZHRoPSIxNjYuMjQ4NDg4IiB5PSI2OS45MDkwOTQ0IiB4PSIxMTIuMzkwNzY4IiBmaWxsLXJ1bGU9Im5vbnplcm8iIGZpbGw9IiMwRDIxOTIiIGlkPSJSZWN0YW5nbGUtMyIvPgogICAgICAgIDxyZWN0IGhlaWdodD0iMjEuMzU1NDk2OSIgd2lkdGg9IjUxLjQzNzU0NzgiIHk9IjY5LjkwOTA5NDQiIHg9IjExMi4zOTA3NjgiIG9wYWNpdHk9IjAuMDc5OTk5OTk4MiIgZmlsbC1ydWxlPSJub256ZXJvIiBmaWxsPSIjRkZGRkZGIiBpZD0iUmVjdGFuZ2xlLTQiLz4KICAgIDwvZz4KPC9zdmc+;" vertex="1" parent="1">
                    <mxGeometry x="160" y="120" width="59.22" height="43.56" as="geometry"/>
                </mxCell>
            </root>
        </mxGraphModel>
    </diagram>
</mxfile>